

<svg xmlns:xsi="http://www.w3.org/2001/XMLSchema-instance"
 xsi:noNamespaceSchemaLocation="logo.xsd" id="201311637" viewBox="0 0 300 133.22726440429688" height="133.22726440429688" width="300"
    style="width: 300px; height: 133.227px; position: absolute; top: 50%; left: 50%; transform: translate(-50%, -50%) scale(0.726); z-index: 0; cursor: pointer; overflow: visible;">
    <defs id="SvgjsDefs3294">
        <linearGradient id="SvgjsLinearGradient3301">
            <stop id="SvgjsStop3302" stop-color="#905e26" offset="0"></stop>
            <stop id="SvgjsStop3303" stop-color="#f5ec9b" offset="0.5"></stop>
            <stop id="SvgjsStop3304" stop-color="#905e26" offset="1"></stop>
        </linearGradient>
        <linearGradient id="SvgjsLinearGradient3305">
            <stop id="SvgjsStop3306" stop-color="#905e26" offset="0"></stop>
            <stop id="SvgjsStop3307" stop-color="#f5ec9b" offset="0.5"></stop>
            <stop id="SvgjsStop3308" stop-color="#905e26" offset="1"></stop>
        </linearGradient>
        <linearGradient id="SvgjsLinearGradient3309">
            <stop id="SvgjsStop3310" stop-color="#905e26" offset="0"></stop>
            <stop id="SvgjsStop3311" stop-color="#f5ec9b" offset="0.5"></stop>
            <stop id="SvgjsStop3312" stop-color="#905e26" offset="1"></stop>
        </linearGradient>
    </defs>
    <g id="SvgjsG3295" featurekey="textGroupContainer"
        transform="matrix(1,0,0,1,0,30.000001907348633)" fill="url(#SvgjsLinearGradient3301)">
        <rect xmlns="http://www.w3.org/2000/svg" y="0" x="0" height="1" width="1" opacity="0"></rect>
        <rect xmlns="http://www.w3.org/2000/svg" y="101.22727272727272" x="0" width="300" height="2"></rect>
        <rect xmlns="http://www.w3.org/2000/svg" y="-30" x="0" width="300" height="2"></rect>
    </g>
    <g id="SvgjsG3296" featurekey="nameFeature-0"
        transform="matrix(1.4138681881167847,0,0,1.4138681881167847,2.7837512057122553,-2.834557077787128)"
        fill="url(#SvgjsLinearGradient3305)">
        <path
            d="M4.16 40.56 c-0.96 -0.44 -2 -2 -2 -3.68 c0 -2.12 0.8 -6.08 4.64 -11.72 c3.64 -5.32 8.36 -9.36 12.56 -9.36 c6.44 0 2.04 13.8 -2.12 23.96 c-2.76 6.88 -8.24 14.88 -14.72 14.88 c-5.16 0 -6.28 -5.96 -1.2 -10.44 c2.92 -2.64 6.24 -2.68 7.76 -2.48 c3.12 0.36 3.56 1.32 1.64 0.92 c-2.4 -0.44 -6.16 -0.36 -8.72 2.16 c-3.96 3.8 -3.64 9.12 0.4 9.12 s9.32 -3.96 14 -14.72 c6.76 -15.48 6.32 -22.44 2.84 -22.44 c-3.24 0 -8.52 4.64 -11.36 8.88 c-3.2 4.8 -5 8.96 -5 11.36 c0 1.84 1.08 2.64 1.72 3.04 s0.16 0.8 -0.44 0.52 z M48.942 16.2 c-0.2 0.84 -0.92 2.72 -1.88 5.28 c5.72 -0.8 11.04 -0.88 14.4 -0.44 c2.64 0.36 2.92 0.64 3.6 1.08 c0.84 0.56 0.96 0.84 -0.04 0.6 c-0.92 -0.2 -2 -0.4 -3.16 -0.6 c-4.36 -0.68 -10.12 -0.44 -15.12 0.16 l-0.84 2.32 c-0.88 2.28 -2.04 5.92 -3.2 9.68 c1.84 0 3.64 0.04 4.88 0.08 c1.4 0 2.36 -0.04 3.24 -0.16 c0.52 -0.04 0.52 0.04 0.2 0.28 c-0.52 0.36 -1.56 0.8 -8.28 0.76 l-0.32 0 c-0.8 2.64 -1.56 5.24 -2.16 7.48 c-1.56 5.64 -1.44 7.72 -0.88 8.24 s-0.04 0.56 -1.04 0 c-1.04 -0.52 -0.68 -2.76 0.68 -8.32 c0.56 -2.44 1.36 -4.88 2.24 -7.4 c-5.92 0.08 -6.72 0.76 -7.04 1.36 c-0.2 0.48 -0.48 0.16 -0.4 -0.24 c0.12 -0.4 0.44 -1.28 3 -1.76 c1.16 -0.24 2.92 -0.32 4.76 -0.32 c1.04 -2.88 2.16 -5.88 3.24 -9.2 c0.32 -1 0.64 -1.88 0.92 -2.64 c-1.84 0.24 -3.56 0.56 -5 0.88 c-5.08 1.12 -6.76 2.32 -6.88 2.92 c-0.04 0.24 -0.48 0.44 -0.36 -0.12 c0.2 -1.36 2.2 -2.28 5.28 -3.08 c2.4 -0.6 4.88 -1.08 7.28 -1.44 c1.36 -3.52 2.12 -4.32 2.32 -5.04 c0.24 -0.92 0.72 -1.12 0.56 -0.36 z M86.444 46.6 c-1.64 0.12 -3.48 0.2 -5.52 0.52 c-4.28 9.52 -10.44 20.08 -15.96 20.08 c-3.16 0 -4.88 -1.96 -4.68 -5.32 c0.16 -3.08 2.64 -7.32 7.6 -10.48 c4.92 -3.12 9.04 -4.44 12.44 -5 c1.48 -3.16 2.76 -6.28 3.64 -8.88 c2.44 -7.4 4.56 -16.36 4.68 -18.32 c0.04 -1.04 -0.04 -1.52 -0.44 -1.52 c-0.8 0 -2.2 2.84 -8.72 14.16 c-6.68 11.52 -8 15.72 -9.96 15.72 c-2.4 0 -3.88 -2.64 -3.88 -7.12 c0 -3.8 1.6 -7.8 2.52 -10.32 c0.88 -2.48 2.2 -4.76 2.72 -5.96 s1.04 -0.8 0.64 0.12 c-0.68 1.52 -1.68 3.72 -2.72 6.4 c-1.04 2.76 -2.24 6.52 -2.24 9.6 c0 3.92 1.2 6.76 2.64 6.76 c1.64 0 4.24 -6.4 9.4 -15.4 c5 -8.8 8.2 -14.64 9.52 -14.64 c0.92 0 1.24 0.8 1.16 2.36 c-0.2 3.12 -1.28 9.2 -4.52 18.32 c-0.88 2.4 -2.08 5.44 -3.48 8.6 c1.08 -0.12 2.08 -0.2 3 -0.2 c0.84 -0.04 3.08 -0.04 3.36 0.12 s-0.16 0.32 -1.2 0.4 z M64.924 66.24 c4.36 0 10.6 -9.64 15 -18.92 c-3.36 0.6 -7.24 1.84 -11.72 4.72 c-4.28 2.72 -6.8 6.88 -6.96 9.8 c-0.2 3 1.32 4.4 3.68 4.4 z M122.38600000000001 54.04 c0.12 -0.44 0.28 -2.68 0.44 -4.36 l-0.2 -1.28 c-0.44 -2.76 -3.84 -6.12 -7.88 -7.92 c-1.32 -0.56 -3.56 -1.52 -5.36 -2.36 c-4.6 7.68 -8.44 15.12 -10.48 19.88 c-0.6 1.4 -1.28 0.8 -1 0.08 c2.48 -5.84 4.92 -10.76 10.6 -20.36 c-0.76 -0.32 -1.4 -0.64 -1.72 -0.8 c-1.2 -0.6 -0.92 -2.6 3.8 -2.68 l1.12 -1.8 c7.68 -12.68 15.52 -18.24 16.64 -18.12 s1.72 0.84 1.48 2.04 c-0.2 1.2 -2.16 8.76 -4.08 18.36 c0.52 0.12 1.12 0.28 1.72 0.6 c0.84 0.48 2.8 1.08 -1.72 0.48 l-0.2 0 c-1.36 7.2 -1.56 9.28 -1.88 13.56 c-0.04 0.12 0 0.24 -0.04 0.36 c0.4 2.6 0.32 2.96 0.28 3.48 c-0.04 0.6 -0.8 1.24 -1.08 1.2 s-0.56 0.04 -0.44 -0.36 z M111.74600000000001 34.24 c4.8 -0.04 12.4 0.32 13.24 0.36 c2 -10.2 4.08 -17.52 4.16 -18.24 c0.08 -0.68 0.16 -1.32 -0.56 -1.4 c-0.76 -0.08 -10.44 9.16 -16 17.96 z M115.02600000000001 39.88 c4.96 2.36 7.2 4.84 8.04 7.16 c0.24 -2.56 0.48 -4.92 1.68 -11.36 c-4.32 -0.44 -10.16 -0.4 -13.68 -0.32 c-0.44 0.68 -0.84 1.36 -1.24 2.04 z M107.346 36.24 l1.6 0.76 l0.96 -1.6 c-2.8 0.2 -2.88 0.76 -2.56 0.84 z M141.24800000000002 22.4 c-1.12 0.64 -1.28 -0.24 -0.12 -0.88 c2.68 -1.48 6.8 -3.6 10.92 -5 c1.16 -3.88 1.88 -5.88 2.04 -6.24 c0.24 -0.64 1.08 -0.72 0.76 0.12 c-0.16 0.4 -0.92 2.68 -1.84 5.8 c2.08 -0.64 4.12 -1.04 5.92 -1.04 c5.72 0 8.88 1.2 8.88 4.56 c0 3.92 -4.6 7.28 -9.12 9.52 c-1.96 1 -6.8 3.4 -10.52 5.24 l-0.8 3.12 l12.04 -0.52 c1.16 -0.04 1.44 0.96 0.48 1 c-0.64 0.04 -7.48 0.32 -12.76 0.48 c-1.16 4.64 -2.08 8.44 -2.28 9.48 c-0.36 1.68 -0.36 1.84 -0.12 1.72 s0.4 0.08 -0.36 0.92 c-0.72 0.8 -1.12 0.36 -0.76 -1.08 l2.76 -11 c-2.6 0.08 -4.88 0.16 -5.2 0.12 c-1.04 -0.04 -1.8 -0.96 -0.32 -1.6 c0.76 -0.32 3.4 -1.64 6.72 -3.32 l1.2 -5 c1.12 -4.6 2.12 -8.28 2.92 -11.12 c-3.76 1.32 -7.72 3.2 -10.44 4.72 z M149.52800000000002 28.84 l-1.08 4.48 l9.32 -4.76 c6.28 -3.16 9.36 -6.32 9.36 -9.04 c0 -2.2 -3.24 -3.44 -8.2 -3.44 c-1.68 0 -3.92 0.52 -6.28 1.28 c-1 3.4 -2.16 7.56 -3.12 11.48 z M146.608 37.64 l0.68 -2.76 c-1.68 0.84 -3.08 1.48 -3.68 1.72 c-2.04 0.84 -2.28 1.16 -0.76 1.16 c0.4 0 1.96 -0.04 3.76 -0.12 z M186.87000000000003 16.44 c-0.12 0.44 -0.24 1 -0.36 1.64 c3.72 -0.24 7.52 -0.36 10.96 -0.48 c8.4 -0.32 11.36 -0.16 12.12 -0.44 c0.76 -0.24 0.72 0.08 0.44 0.36 c-0.16 0.2 -0.84 0.72 -1.48 0.72 c-0.6 0.04 -6.24 0.04 -11.28 0.24 c-4.16 0.16 -7.8 0.32 -10.96 0.56 c-0.52 2.48 -1.2 6.16 -1.84 11.2 c-0.96 7.28 -2.84 18.4 -3 19.72 c-0.12 1.32 -1.04 2.72 -1.04 1.68 s0.72 -6.68 3 -21.24 c0.84 -5.44 1.52 -9 2.04 -11.32 c-2.56 0.2 -4.8 0.4 -6.6 0.68 c-4.88 0.76 -8.76 1.72 -8.92 2.68 c-0.12 0.68 -0.56 0.6 -0.76 0.16 c-0.28 -0.76 0.04 -1.56 6.64 -3.12 c2.92 -0.68 6.32 -1.08 9.84 -1.32 c0.72 -3 1.16 -3.44 1.48 -3.76 c0.6 -0.56 1.12 0.12 0.68 0.4 c-0.48 0.28 -0.72 0.64 -0.96 1.64 z"></path>
    </g>
    <g id="SvgjsG3297" featurekey="sloganFeature-0"
        transform="matrix(0.7519004457008753,0,0,0.7519004457008753,29.603522625937963,107.484198112734)"
        fill="url(#SvgjsLinearGradient3309)">
        <path
            d="M9.4531 6.191000000000001 l0 1.748 l-3.4961 0 l0 12.061 l-1.9238 0 l0 -12.061 l-3.5059 0 l0 -1.748 l8.9258 0 z M28.657007421875 20.18555 c-3.916 0 -6.9043 -2.6953 -6.9043 -7.0996 c0 -4.3945 2.9883 -7.0801 6.9043 -7.0801 c3.8965 0 6.8945 2.6855 6.8945 7.0801 c0 4.4043 -2.998 7.0996 -6.8945 7.0996 z M28.657007421875 18.3594 c2.7637 0 4.9512 -1.9141 4.9512 -5.2734 c0 -3.3301 -2.1875 -5.2441 -4.9512 -5.2441 c-2.7734 0 -4.9707 1.9141 -4.9707 5.2441 c0 3.3594 2.1973 5.2734 4.9707 5.2734 z M64.23773046875 20 l-1.9043 0 l-0.9082 -11.23 l-4.2676 11.23 l-1.1816 0 l-4.2383 -11.191 l-0.92773 11.191 l-1.9141 0 l1.0645 -13.809 l2.627 0 l3.9746 10.439 l3.9941 -10.439 l2.627 0 z M84.486597265625 20.18555 c-3.916 0 -6.9043 -2.6953 -6.9043 -7.0996 c0 -4.3945 2.9883 -7.0801 6.9043 -7.0801 c3.8965 0 6.8945 2.6855 6.8945 7.0801 c0 4.4043 -2.998 7.0996 -6.8945 7.0996 z M84.486597265625 18.3594 c2.7637 0 4.9512 -1.9141 4.9512 -5.2734 c0 -3.3301 -2.1875 -5.2441 -4.9512 -5.2441 c-2.7734 0 -4.9707 1.9141 -4.9707 5.2441 c0 3.3594 2.1973 5.2734 4.9707 5.2734 z M112.7041203125 20 l-3.5742 -6.2109 l-1.9336 0 l0 6.2109 l-1.9434 0 l0 -13.809 l4.6484 0 c2.8906 0 4.209 1.7676 4.209 3.9355 c0 1.9238 -1.1328 3.2617 -3.0273 3.584 l3.8965 6.2891 l-2.2754 0 z M107.1963203125 7.871 l0 4.4336 l2.4414 0 c1.7969 0 2.6074 -0.89844 2.6074 -2.207 c0 -1.2891 -0.81055 -2.2266 -2.6074 -2.2266 l-2.4414 0 z M135.892352734375 20 l-3.5742 -6.2109 l-1.9336 0 l0 6.2109 l-1.9434 0 l0 -13.809 l4.6484 0 c2.8906 0 4.209 1.7676 4.209 3.9355 c0 1.9238 -1.1328 3.2617 -3.0273 3.584 l3.8965 6.2891 l-2.2754 0 z M130.384552734375 7.871 l0 4.4336 l2.4414 0 c1.7969 0 2.6074 -0.89844 2.6074 -2.207 c0 -1.2891 -0.81055 -2.2266 -2.6074 -2.2266 l-2.4414 0 z M157.57668515625 20.18555 c-3.916 0 -6.9043 -2.6953 -6.9043 -7.0996 c0 -4.3945 2.9883 -7.0801 6.9043 -7.0801 c3.8965 0 6.8945 2.6855 6.8945 7.0801 c0 4.4043 -2.998 7.0996 -6.8945 7.0996 z M157.57668515625 18.3594 c2.7637 0 4.9512 -1.9141 4.9512 -5.2734 c0 -3.3301 -2.1875 -5.2441 -4.9512 -5.2441 c-2.7734 0 -4.9707 1.9141 -4.9707 5.2441 c0 3.3594 2.1973 5.2734 4.9707 5.2734 z M180.784408203125 20 l-3.8965 -13.809 l2.0215 0 l3.1836 11.23 l3.3789 -11.23 l1.6992 0 l3.3789 11.23 l3.1934 -11.23 l2.0117 0 l-3.8965 13.809 l-2.334 0 l-3.2031 -10.273 l-3.2031 10.273 l-2.334 0 z M209.431596875 12.5 l-0.12695 -6.3086 l1.7676 0 l-0.18555 6.3086 l-1.4551 0 z M230.373798046875 20.18555 c-2.8809 0 -4.9902 -1.377 -5.459 -3.7207 l1.9824 -0.46875 c0.3125 1.6113 1.709 2.5391 3.5449 2.5391 c1.4746 0 2.8906 -0.60547 2.8613 -2.2656 c-0.019531 -1.6406 -1.7969 -2.0898 -3.6816 -2.6074 c-2.1387 -0.58594 -4.2773 -1.2598 -4.2773 -3.7988 c0 -2.5684 2.1191 -3.8574 4.6289 -3.8574 c2.4316 0 4.6191 1.0254 5.1367 3.3984 l-1.8848 0.47852 c-0.3418 -1.5332 -1.6211 -2.2168 -3.1641 -2.2168 c-1.3867 0 -2.7637 0.60547 -2.7637 2.1777 c0 1.4258 1.543 1.8457 3.291 2.3145 c2.1973 0.5957 4.7168 1.2793 4.7168 4.0527 c0 2.793 -2.3438 3.9746 -4.9316 3.9746 z M273.888759765625 20 l-1.1523 -3.2227 l-6.1719 0 l-1.1523 3.2227 l-2.0215 0 l5.0879 -13.809 l2.3438 0 l5.0879 13.809 l-2.0215 0 z M267.170159765625 15.0781 l4.9609 0 l-2.4805 -6.9629 z M296.6279484375 20 l-3.5742 -6.2109 l-1.9336 0 l0 6.2109 l-1.9434 0 l0 -13.809 l4.6484 0 c2.8906 0 4.209 1.7676 4.209 3.9355 c0 1.9238 -1.1328 3.2617 -3.0273 3.584 l3.8965 6.2891 l-2.2754 0 z M291.1201484375 7.871 l0 4.4336 l2.4414 0 c1.7969 0 2.6074 -0.89844 2.6074 -2.207 c0 -1.2891 -0.81055 -2.2266 -2.6074 -2.2266 l-2.4414 0 z M319.718480859375 6.191000000000001 l0 1.748 l-3.4961 0 l0 12.061 l-1.9238 0 l0 -12.061 l-3.5059 0 l0 -1.748 l8.9258 0 z"></path>
    </g>
</svg>